HIERARCHY
ROOT Hips
{
	OFFSET -14.64140 90.27770 -84.91600
	CHANNELS 6 Xposition Yposition Zposition Zrotation Xrotation Yrotation
	JOINT Spine
	{
		OFFSET 0.00000 13.20850 -1.60436
		CHANNELS 3 Zrotation Xrotation Yrotation
		JOINT Spine1
		{
			OFFSET 0.00000 8.61716 0.00000
			CHANNELS 3 Zrotation Xrotation Yrotation
			JOINT Spine2
			{
				OFFSET 0.00000 8.61717 0.00000
				CHANNELS 3 Zrotation Xrotation Yrotation
				JOINT Spine3
				{
					OFFSET 0.00000 8.61717 0.00000
					CHANNELS 3 Zrotation Xrotation Yrotation
					JOINT Neck
					{
						OFFSET 0.00000 11.07920 1.10792
						CHANNELS 3 Zrotation Xrotation Yrotation
						JOINT Neck1
						{
							OFFSET 0.00000 7.08032 0.00000
							CHANNELS 3 Zrotation Xrotation Yrotation
							JOINT Head
							{
								OFFSET 0.00000 7.08031 0.00000
								CHANNELS 3 Zrotation Xrotation Yrotation
								End site
								{
									OFFSET 0.00000 0.00000 0.00000
								}
							}
						}
					}
					JOINT RightShoulder
					{
						OFFSET -0.01000 7.91373 5.19711
						CHANNELS 3 Zrotation Xrotation Yrotation
						JOINT RightArm
						{
							OFFSET -18.41580 0.00000 0.00000
							CHANNELS 3 Zrotation Xrotation Yrotation
							JOINT RightForeArm
							{
								OFFSET -29.11090 0.00000 0.00000
								CHANNELS 3 Zrotation Xrotation Yrotation
								JOINT RightHand
								{
									OFFSET -24.65040 0.00000 0.00000
									CHANNELS 3 Zrotation Xrotation Yrotation
									JOINT RightHandThumb1
									{
										OFFSET -5.35114 -0.85590 3.97906
										CHANNELS 3 Zrotation Xrotation Yrotation
										JOINT RightHandThumb2
										{
											OFFSET -4.52789 0.00000 0.00000
											CHANNELS 3 Zrotation Xrotation Yrotation
											JOINT RightHandThumb3
											{
												OFFSET -2.46976 0.00000 0.00000
												CHANNELS 3 Zrotation Xrotation Yrotation
												End site
												{
													OFFSET 0.00000 0.00000 0.00000
												}
											}
										}
									}
									JOINT RightHandIndex1
									{
										OFFSET -14.26970 0.00000 2.88139
										CHANNELS 3 Zrotation Xrotation Yrotation
										JOINT RightHandIndex2
										{
											OFFSET -5.48836 0.00000 0.00000
											CHANNELS 3 Zrotation Xrotation Yrotation
											JOINT RightHandIndex3
											{
												OFFSET -3.01859 0.00000 0.00000
												CHANNELS 3 Zrotation Xrotation Yrotation
												End site
												{
													OFFSET 0.00000 0.00000 0.00000
												}
											}
										}
									}
									JOINT RightHandMiddle1
									{
										OFFSET -14.26970 0.00000 -0.09147
										CHANNELS 3 Zrotation Xrotation Yrotation
										JOINT RightHandMiddle2
										{
											OFFSET -6.17441 0.00000 0.00000
											CHANNELS 3 Zrotation Xrotation Yrotation
											JOINT RightHandMiddle3
											{
												OFFSET -3.56743 0.00000 0.00000
												CHANNELS 3 Zrotation Xrotation Yrotation
												End site
												{
													OFFSET 0.00000 0.00000 0.00000
												}
											}
										}
									}
									JOINT RightHandRing1
									{
										OFFSET -12.69180 0.00000 -3.06433
										CHANNELS 3 Zrotation Xrotation Yrotation
										JOINT RightHandRing2
										{
											OFFSET -5.62556 0.00000 0.00000
											CHANNELS 3 Zrotation Xrotation Yrotation
											JOINT RightHandRing3
											{
												OFFSET -3.56744 0.00000 0.00000
												CHANNELS 3 Zrotation Xrotation Yrotation
												End site
												{
													OFFSET 0.00000 0.00000 0.00000
												}
											}
										}
									}
									JOINT RightHandPinky1
									{
										OFFSET -11.11390 0.00000 -6.03719
										CHANNELS 3 Zrotation Xrotation Yrotation
										JOINT RightHandPinky2
										{
											OFFSET -4.52789 0.00000 0.00000
											CHANNELS 3 Zrotation Xrotation Yrotation
											JOINT RightHandPinky3
											{
												OFFSET -2.46976 0.00000 0.00000
												CHANNELS 3 Zrotation Xrotation Yrotation
												End site
												{
													OFFSET 0.00000 0.00000 0.00000
												}
											}
										}
									}
								}
							}
						}
					}
					JOINT LeftShoulder
					{
						OFFSET 0.01000 7.91373 5.19711
						CHANNELS 3 Zrotation Xrotation Yrotation
						JOINT LeftArm
						{
							OFFSET 18.41580 0.00000 0.00000
							CHANNELS 3 Zrotation Xrotation Yrotation
							JOINT LeftForeArm
							{
								OFFSET 29.11090 0.00000 0.00000
								CHANNELS 3 Zrotation Xrotation Yrotation
								JOINT LeftHand
								{
									OFFSET 24.65040 0.00000 0.00000
									CHANNELS 3 Zrotation Xrotation Yrotation
									JOINT LeftHandThumb1
									{
										OFFSET 5.35114 -0.85590 3.97906
										CHANNELS 3 Zrotation Xrotation Yrotation
										JOINT LeftHandThumb2
										{
											OFFSET 4.52789 0.00000 0.00000
											CHANNELS 3 Zrotation Xrotation Yrotation
											JOINT LeftHandThumb3
											{
												OFFSET 2.46977 0.00000 0.00000
												CHANNELS 3 Zrotation Xrotation Yrotation
												End site
												{
													OFFSET 0.00000 0.00000 0.00000
												}
											}
										}
									}
									JOINT LeftHandIndex1
									{
										OFFSET 14.26970 0.00000 2.88139
										CHANNELS 3 Zrotation Xrotation Yrotation
										JOINT LeftHandIndex2
										{
											OFFSET 5.48836 0.00000 0.00000
											CHANNELS 3 Zrotation Xrotation Yrotation
											JOINT LeftHandIndex3
											{
												OFFSET 3.01859 0.00000 0.00000
												CHANNELS 3 Zrotation Xrotation Yrotation
												End site
												{
													OFFSET 0.00000 0.00000 0.00000
												}
											}
										}
									}
									JOINT LeftHandMiddle1
									{
										OFFSET 14.26970 0.00000 -0.09147
										CHANNELS 3 Zrotation Xrotation Yrotation
										JOINT LeftHandMiddle2
										{
											OFFSET 6.17440 0.00000 0.00000
											CHANNELS 3 Zrotation Xrotation Yrotation
											JOINT LeftHandMiddle3
											{
												OFFSET 3.56744 0.00000 0.00000
												CHANNELS 3 Zrotation Xrotation Yrotation
												End site
												{
													OFFSET 0.00000 0.00000 0.00000
												}
											}
										}
									}
									JOINT LeftHandRing1
									{
										OFFSET 12.69180 0.00000 -3.06433
										CHANNELS 3 Zrotation Xrotation Yrotation
										JOINT LeftHandRing2
										{
											OFFSET 5.62556 0.00000 0.00000
											CHANNELS 3 Zrotation Xrotation Yrotation
											JOINT LeftHandRing3
											{
												OFFSET 3.56744 0.00000 0.00000
												CHANNELS 3 Zrotation Xrotation Yrotation
												End site
												{
													OFFSET 0.00000 0.00000 0.00000
												}
											}
										}
									}
									JOINT LeftHandPinky1
									{
										OFFSET 11.11390 0.00000 -6.03719
										CHANNELS 3 Zrotation Xrotation Yrotation
										JOINT LeftHandPinky2
										{
											OFFSET 4.52789 0.00000 0.00000
											CHANNELS 3 Zrotation Xrotation Yrotation
											JOINT LeftHandPinky3
											{
												OFFSET 2.46976 0.00000 0.00000
												CHANNELS 3 Zrotation Xrotation Yrotation
												End site
												{
													OFFSET 0.00000 0.00000 0.00000
												}
											}
										}
									}
								}
							}
						}
					}
					JOINT pCube4
					{
						OFFSET 0.00000 10.91090 1.10792
						CHANNELS 3 Zrotation Xrotation Yrotation
						End site
						{
							OFFSET 0.00000 0.00000 0.00000
						}
					}
				}
			}
		}
	}
	JOINT RightUpLeg
	{
		OFFSET -9.98441 0.00000 0.00000
		CHANNELS 3 Zrotation Xrotation Yrotation
		JOINT RightLeg
		{
			OFFSET 0.00000 -42.11790 0.00000
			CHANNELS 3 Zrotation Xrotation Yrotation
			JOINT RightFoot
			{
				OFFSET 0.00000 -45.00020 -0.00001
				CHANNELS 3 Zrotation Xrotation Yrotation
				JOINT RightForeFoot
				{
					OFFSET 0.00000 -3.74820 0.00000
					CHANNELS 3 Zrotation Xrotation Yrotation
					JOINT RightToeBase
					{
						OFFSET 0.00000 0.06325 14.43120
						CHANNELS 3 Zrotation Xrotation Yrotation
						End site
						{
							OFFSET 0.00000 0.00000 0.00000
						}
					}
				}
			}
		}
	}
	JOINT LeftUpLeg
	{
		OFFSET 9.98441 0.00000 0.00000
		CHANNELS 3 Zrotation Xrotation Yrotation
		JOINT LeftLeg
		{
			OFFSET 0.00000 -42.11800 0.00000
			CHANNELS 3 Zrotation Xrotation Yrotation
			JOINT LeftFoot
			{
				OFFSET 0.00000 -45.00070 0.00000
				CHANNELS 3 Zrotation Xrotation Yrotation
				JOINT LeftForeFoot
				{
					OFFSET 0.00000 -3.74824 0.00000
					CHANNELS 3 Zrotation Xrotation Yrotation
					JOINT LeftToeBase
					{
						OFFSET 0.00000 0.06325 14.43110
						CHANNELS 3 Zrotation Xrotation Yrotation
						End site
						{
							OFFSET 0.00000 0.00000 0.00000
						}
					}
				}
			}
		}
	}
}
MOTION
Frames: 4
Frame Time: 0.050000
0.01584159908136614 0.03645684936135441 0.03613302215984185 -0.022160727896294346 -0.030845987324802628 0.020723842439428822 -4.198495564063242 5.835379343987943 -0.537142059191047 -0.5596284990710899 3.2073099714122133 0.33214968624656827 -0.721839604020187 -0.5159105031840238 -1.7335747054396362 -1.1934835269145803 0.15259708269388012 -0.9856331281114505 -1.8263489659654708 9.721666506437797 3.956045425261174 -0.377873563041931 -1.1294274374885789 7.058262754881488 -1.4338784584259379 -15.611584343504468 0.6191150785922205 4.087139749191552 -0.3254155799410514 -10.125514977986876 65.60334546054844 7.324353577869549 22.362875383810078 46.63743384217835 18.03027581204922 103.06538510159015 26.50052049370714 0.03740665608751953 -11.065284615572816 4.533931101763205 -0.11970537227829559 -1.5922979949769736 -0.04618576923854218 -0.02375545438889109 -56.1942414113171 0.042997879334119686 -0.015955063140691863 -56.28236703278889 -38.79358169036112 -0.0031640436479621614 -0.035388144677900246 0.03943472727340861 -0.04654931496316639 -0.04709696809364624 -0.009728159504987493 0.03389257173303928 -0.017939137786720172 -36.72963320517382 0.04188408458546415 -0.009910369771888005 -0.04744302285562337 -0.025704145912357 0.04771553824566349 0.032925091410326145 -0.009350035636290149 0.027808893345470174 -19.805870201275788 -0.042090722400564204 0.004384464769116549 -0.015151160600040533 -0.007891865535485976 -0.010238884150717513 -0.017389946293954815 0.03134257831857728 0.02207419585419965 24.034768748381317 0.019327826667918737 0.03170142865144842 28.864027615020298 0.039668389075092826 0.02317009998948869 28.911642361333662 -0.017910989059968588 0.009819692169574169 1.7991609104971849 0.8734144960644246 9.38742006812108 -64.91754348143452 12.854982532536715 -31.467283459395937 -85.14525449343243 12.073842779684814 -120.5547301815176 -32.00334009501038 -5.497757959182156 3.2392028052430657 -0.4410640424594379 0.10000663042113578 -8.160256716859909 0.0011545816791581477 0.02934049386217123 44.60005805645289 0.049772542795940476 0.012999735325963303 44.5741970164355 12.464358377637533 -0.015301503182739143 -0.03075975459269675 -0.04333887325382876 0.03017196468710953 0.006766557242867729 0.033101887152830176 0.032986453807113424 -0.008233795042278348 11.09597290360799 0.02156359084704351 -0.01662562256465532 0.0387674438892253 0.03372113396381334 -0.013563408768214694 0.0131810028764147 0.025741136152935103 0.04125541773694605 4.800513887865894 -0.016932995396283575 0.010876771475179651 0.02167018779958715 -0.04996558573917598 0.03472884737588367 0.016043564476351923 -0.032858283873299095 -0.023561067447810585 -5.55855804850399 0.040586914103984156 -0.01624786432584801 -6.720674806348999 0.020117130814923643 0.03308184820211897 -6.736106831071828 0.041501087270131874 0.0069359243089046054 0.007064758780005389 -0.012465559175022732 -0.026972627902604924 8.037694164154003 3.4727666500752887 -19.20840806479961 -0.031518071791118145 10.352262953202093 0.008834143404316899 -5.622426955979394 -15.668244348500204 3.1705310661488624 -0.0006419821247484098 0.02105864620406298 -0.041885534990197516 -0.03258540352912054 4.716459095404871 -0.046152857199236466 12.493933098843744 -8.27090080610699 6.865102895771923 0.036993307770850456 46.36847998820953 0.016680925094451425 -4.353839904235335 -14.726147116589187 -3.8692295774374514 -0.020921376549586743 -0.011827433616840867 0.002824573757222798 0.04538102352522157 -10.764023771473259 0.049900689110641494 
0.01635989317149252 0.037122689689853015 0.049508018050998207 0.03854981245943395 -0.012687699771984471 -0.038040151467115924 -3.9728055824690025 5.570295802958731 -0.553041549287871 -0.5769930954337078 3.2388142997509854 0.3407109647241878 -0.6869442247883399 -0.5228827370463802 -1.6257240085122813 -1.217558909715284 0.1219545028927398 -0.9888693661275509 -1.8156346672095234 9.788771634416978 4.043112372595984 -0.30618766059195374 -1.166470476719337 7.258868276286655 -1.4450999459999192 -15.818008004172118 0.6816383981192179 3.7659695711945895 -0.13068817701909358 -10.222502376270919 66.27916070416377 8.286514415526636 21.638133613921116 47.791553925720855 18.7453613388316 102.75627347240119 26.17756831013662 0.03387522105562547 -11.147996181227654 4.551079274574376 -0.11197302542302653 -1.5665575478475755 0.011727897322857572 -0.03465816354385073 -56.24758988243332 -0.02851910499804012 0.016123068872192305 -56.2266832646641 -38.72335356479591 -0.010718509845602296 -5.0435489643164956e-05 -0.03924231192877732 -0.03237631145312391 -0.04769790863409924 -0.009428320287883325 0.001755890957370038 -0.0003890443295807288 -36.71450108829841 0.03511947543797237 0.015974043092252067 -0.0447781337885261 0.043269976610310276 -0.04647438089373983 -0.012216083764101611 0.0065586533987191725 -0.02606784060116745 -19.777961064611272 0.01263814812054879 0.011185915358855592 -0.023022312739983092 0.04881132277956589 0.03280591927103788 0.03141622205223073 -0.011720504408891831 -0.014361628997342883 24.008583640194175 -0.0035182273742550762 0.04239305410186143 28.855040776045257 -0.008523486231426087 0.034308078098583626 28.81743045878151 -0.014591015120508935 -0.009503047967791023 2.1509042946571175 0.9028145004812563 9.36186909836095 -65.74872110003973 14.088919517172716 -30.865218897868974 -87.71562242149012 12.11048808273955 -121.55627976980485 -32.38079464049557 -6.1137418250393445 3.918473042767499 -0.5236728188136114 0.11672416734157548 -8.153052745037614 0.0034975713892858654 0.023959999356022162 44.523289252029066 -0.02754050976393349 -0.0006216288553927562 44.60148382714565 12.433765216042032 -0.0150712926683967 0.018058103945575707 0.02512427252703463 -0.04628418858710198 0.02914495041862356 0.0316148989105425 0.011149276549807569 -0.021912882306288465 11.099531020509742 0.03718850109303202 -0.025088297496687062 0.022794268735503408 -0.017176363606857207 0.007897463881493432 0.008222074180663444 -0.022621067445679995 -0.0030011502213668495 4.806167349862856 0.02097972269736841 0.011303935733842769 -0.02203638804659341 0.03269133765896836 0.016134743807133225 0.04085068608698847 0.03458767260174574 -0.022159010944809345 -5.600996258941165 -0.04874179220305374 0.04347145964728948 -6.766240939824215 -0.0027047158838882806 -0.008466230607714127 -6.718810139635863 0.03482266268975377 -0.02405520449021293 -0.005439294155128094 -0.029799718169969066 0.03640527109614326 8.058437655347166 3.515116225944836 -19.230975542567496 0.029634880067704338 10.390061896327442 0.050741628862659316 -5.577569460448785 -15.689670608813989 3.223228447787132 0.032882524193385436 -0.01787104252675295 -0.038073371829370505 -0.01774839029645358 4.7187946068408095 -0.008973149513053336 12.468406406660423 -8.24627767422443 6.862179774585438 0.02443262672774835 46.34936124903587 -0.022301700751264395 -4.367037059213775 -14.742208706429514 -3.8264527035700415 0.021004325008531496 0.036597791998929985 -0.0455901284978412 0.03154405785164006 -10.792779521099646 -0.011972996593241038 
0.0067230198908784485 0.04714717265841181 0.001860160438837142 0.008672986590619955 0.0351198914482848 0.019004147561000592 -3.6792714422573742 5.210291980901733 -0.6096974592985912 -0.6404317317061177 3.2356944637103515 0.34417641314941105 -0.6618035037743444 -0.615386702757914 -1.5635635026211083 -1.188434344003523 0.11710805099002763 -0.9024641874195954 -1.7434169136853135 9.948309067091177 3.996027186080986 -0.29476158921946227 -1.2751407599173687 7.302690628277421 -1.3782835346630562 -15.91533291888356 0.6295922528961942 3.173590449000863 0.06451155256798242 -10.39882188470342 67.40499986277196 9.035141955834261 21.17094561221227 48.20901169254148 19.340604617802818 102.38214384540612 25.508998530125922 -0.0008933984978326155 -11.066836140610448 4.533886016635453 -0.09801653908183898 -1.6029992978832734 0.020455055663689745 -0.03697000792279117 -56.263629069822194 0.01080887487656943 -0.0046880494287172714 -56.2509572625686 -38.725173337777534 -0.02661805668263468 0.04942339799222284 0.005707573849072155 0.04552339117305891 0.0032323459282559866 0.002731222864252362 0.04758541006213416 0.005168780778661127 -36.714315833593886 -0.04796769959036662 -0.043625793619242806 0.048895520233318335 -0.0019890971741466056 0.007883582785458929 0.02253525289042763 0.02447026705570306 0.022455822594503308 -19.807759823370247 -0.012641315474326682 0.023471621618874526 -0.04836520607180087 0.015533336222665664 -0.04568145713438098 0.02872201195546158 0.04098855865700798 -0.03128456125893565 24.023406222269728 -0.0018667069693466278 -0.03115291676662955 28.885219885424625 0.017409512037745937 -0.018039035729557368 28.860928628445965 0.0018886966866944188 0.04735081512440181 2.6775349446256276 1.072712243157231 9.428406440134763 -66.81819996328366 15.266565529882378 -30.42171400508617 -89.4779897605022 12.398933592403706 -122.27401641588871 -32.31262186374119 -6.6888763930526425 4.588300878608193 -0.49510443881706573 0.11741340342213316 -8.128599791552885 0.03968990948710719 0.01216460102042695 44.567735645962266 -0.03412968342104804 0.022455280327526146 44.60930829111058 12.42621956938764 -0.015799922416392238 -0.03437612237086329 -0.005453728171304688 -0.007797970565766866 7.117948668104127e-05 -0.0009749732202675442 -0.004737561670679547 0.04615411543186611 11.138437372298837 -0.03520001846870956 -0.013687661003748658 -0.03699449407719842 -0.01715105576613002 0.019012117908178694 0.04836316246419495 -0.02091971177370346 0.018965946298745484 4.768040740769531 -0.034177155447578 0.02497891323329172 0.02222198938542139 -0.017101172802608776 0.033412153813695264 -0.013638020481587746 0.0015991095134608533 -0.006867165614251243 -5.627967228804756 -0.0005546357848308361 0.018530172686251924 -6.700768778669526 -0.004734461633271846 -0.018583365222851853 -6.726607146407506 0.03850086555501386 0.03469563931152793 -0.007496813278318002 0.019713800472188448 0.01002684123920152 8.090278955110584 3.454524542974948 -19.19388538030822 0.007215428838997159 10.389790386405235 0.061379732396690936 -5.613848401464303 -15.707209284696772 3.236594421539271 -0.0073324310149453535 -0.015063682992468613 -0.032576737691755064 -0.046528918185709686 4.701770006017753 -0.01988884675740104 12.470045816355482 -8.213533428362783 6.856206507923428 -0.012113030183913182 46.41238433269619 0.013781351107692234 -4.335606953421066 -14.763691734323661 -3.798520245196038 0.03488060668986551 0.02943223545382726 -0.023123664935993653 -2.9010283261822585e-06 -10.761910926751241 0.027475030576123827 
0.049033748775423505 0.04066080287941334 0.04953736149473298 0.016374466506041803 0.02168196737910133 0.04310858184810101 -3.4198922418481357 4.8462900172015155 -0.7177908803194342 -0.6539559806146314 3.256792925471123 0.33728620790653 -0.6764512668193967 -0.7175717671131226 -1.5034233707987186 -1.2108632779510262 0.053102368948256755 -0.9078056585754025 -1.756027662023278 10.151420754565885 3.8270054627993044 -0.22657327117686818 -1.2617945382465128 7.127242567504663 -1.2305654560324166 -16.116001040242125 0.6157587998825403 2.479452403204303 0.2661521423387023 -10.614630154086289 68.90221391291155 9.304251881687014 20.663494915371267 48.540489420902716 20.07355712781103 101.87146530904333 24.786106423949267 -0.055726468812468996 -10.987460782521785 4.544031095755629 -0.10394376585623541 -1.6129607473531458 0.0312264855983372 -0.01243297444642442 -56.209160541273455 -0.028888435860498923 -0.0441200290490532 -56.20740530714814 -38.755136646542184 -0.0006384958746391728 -0.003989242656703571 0.01051508974399101 -0.03741965625648383 -0.012884117170662988 0.016268906007505544 -0.006765811079054367 -0.02236667992377625 -36.68711617091917 -0.045019393218019704 -0.02340274495774849 -0.023937136072225546 0.007872154428620595 0.03922514518481339 0.012301273317092956 -0.023902623296266277 -0.003917002844457754 -19.777005359352472 0.03991068248105134 0.0008112993745375979 0.010818613073687802 0.01635970593934744 -0.012896329230965203 -0.04138030812434736 0.005408573008910113 0.027567453481963437 24.070329522958925 0.021269701572462257 -0.03831007107297914 28.864221932888558 -0.0015429302011551451 0.021445214744703935 28.873963364142515 -0.015706511765665492 0.0007495277202590568 3.2386937631955215 1.218159532124475 9.63373715878787 -68.01374985591163 16.22713901425489 -29.774179846308524 -90.50002183420159 12.972517563564418 -123.06043363127795 -32.33124787621604 -7.287183388342999 5.269026827640355 -0.5004420258001229 0.05269647194535144 -8.151649055135861 -0.04011219093523533 -0.00986443429068407 44.59073984764541 -0.046641508624502115 0.026719305220698375 44.544712160620385 12.472060407174558 -0.019336684384367604 -0.04190689279313307 -0.04649115311904061 -0.04515403909389883 0.023603233168380065 -0.014585708974771794 0.010881863458294028 0.009775954662462158 11.109779347426082 -0.043878487934352735 0.047080122968029735 0.01006389437069738 0.028927466590865675 -0.010966375988031766 -0.023765648062704967 -0.013226520828046701 0.0051960061547298335 4.803920289362928 -0.015393604337998785 0.016220021869381596 0.01866637017369347 -0.03346654650236299 0.03791548357560721 -0.00925093741215354 0.025697494262211427 -0.03659002933073266 -5.557500349675152 -0.024164616978075173 -0.024668793060641032 -6.749682819007745 -0.040785569113205855 0.014571637134010114 -6.707254076162613 -0.032117709258978916 0.04946059402349186 -0.006960725349728541 0.024270832614109592 0.008852925942641404 8.018866437034971 3.44903837692571 -19.182689145055708 0.03965620816289133 10.432400291472103 -0.03371751208214352 -5.586821824214949 -15.668942211381635 3.1538776702360143 -0.025640041238521986 0.01593657750753478 0.04046627601733471 -0.02350509665428508 4.742426765815403 -0.04403333490076708 12.447378327294427 -8.265056135072282 6.873297994658399 -0.04421244858688018 46.35535001921862 -0.026247711929597677 -4.307241809520711 -14.791410450556578 -3.849546047314977 0.036721861148093456 -0.02094307052259701 0.005160345215428061 -0.017315711044322987 -10.713432710171338 -0.037617113959518396 
